<?xml version="1.0" encoding="iso-8859-1"?>
<!-- Generator: Adobe Illustrator 18.0.0, SVG Export Plug-In . SVG Version: 6.00 Build 0)  -->
<!DOCTYPE svg PUBLIC "-//W3C//DTD SVG 1.1//EN" "http://www.w3.org/Graphics/SVG/1.1/DTD/svg11.dtd">
<svg version="1.1" id="Capa_1" xmlns="http://www.w3.org/2000/svg" xmlns:xlink="http://www.w3.org/1999/xlink" x="0px" y="0px"
	 viewBox="0 0 297 297" style="enable-background:new 0 0 297 297;" xml:space="preserve">
<g>
	<path fill="#FFFFFF" d="M126.262,95.376h12.354v12.354c0,5.458,4.425,9.884,9.884,9.884s9.884-4.425,9.884-9.884V95.376h12.354
		c5.458,0,9.884-4.425,9.884-9.884c0-5.458-4.425-9.884-9.884-9.884h-12.354V63.255c0-5.458-4.425-9.884-9.884-9.884
		s-9.884,4.425-9.884,9.884v12.354h-12.354c-5.458,0-9.884,4.425-9.884,9.884C116.379,90.951,120.804,95.376,126.262,95.376z"/>
	<path fill="#FFFFFF" d="M211.507,0H85.493C69.825,0,57.077,12.747,57.077,28.415v240.17c0,15.668,12.747,28.415,28.415,28.415h126.015
		c15.668,0,28.415-12.747,28.415-28.415V28.415C239.923,12.747,227.175,0,211.507,0z M76.844,187.063h21.529
		c3.911,0,7.454-2.306,9.037-5.883l3.494-7.892l16.027,36.197c1.583,3.576,5.126,5.882,9.037,5.882c3.911,0,7.454-2.306,9.037-5.882
		l5.234-11.822l2.56,3.853c1.927,2.902,5.24,4.571,8.717,4.404c3.479-0.171,6.611-2.159,8.245-5.234l15.527-29.225l4.303,9.718
		c1.583,3.577,5.126,5.883,9.037,5.883h21.529v41.246H76.844V187.063z M85.493,19.767h126.015c4.769,0,8.648,3.879,8.648,8.648
		v138.881H205.06l-9.927-22.422c-1.531-3.459-4.903-5.741-8.683-5.876c-3.783-0.16-7.307,1.899-9.082,5.239l-17.281,32.525
		l-3.354-5.05c-1.996-3.006-5.476-4.687-9.069-4.38c-3.596,0.305-6.74,2.546-8.201,5.846l-3.495,7.893l-16.027-36.198
		c-1.583-3.576-5.126-5.882-9.037-5.882c-3.911,0-7.454,2.306-9.037,5.883l-9.927,22.422H76.844V28.415
		C76.844,23.646,80.724,19.767,85.493,19.767z M211.507,277.233H85.493c-4.769,0-8.648-3.879-8.648-8.648v-20.508h143.311v20.508
		C220.156,273.354,216.276,277.233,211.507,277.233z"/>
	<path fill="#FFFFFF" d="M156.654,253.018h-16.308c-5.458,0-9.884,4.425-9.884,9.884s4.425,9.884,9.884,9.884h16.308
		c5.458,0,9.884-4.425,9.884-9.884S162.112,253.018,156.654,253.018z"/>
</g>
<g>
</g>
<g>
</g>
<g>
</g>
<g>
</g>
<g>
</g>
<g>
</g>
<g>
</g>
<g>
</g>
<g>
</g>
<g>
</g>
<g>
</g>
<g>
</g>
<g>
</g>
<g>
</g>
<g>
</g>
</svg>
